<svg xmlns="http://www.w3.org/2000/svg" xmlns:xlink="http://www.w3.org/1999/xlink" width="1080" zoomAndPan="magnify" viewBox="0 0 810 809.999993" height="1080" preserveAspectRatio="xMidYMid meet" version="1.0"><defs><g/><clipPath id="229e2d0be7"><path d="M 405 0 C 181.324219 0 0 181.324219 0 405 C 0 628.675781 181.324219 810 405 810 C 628.675781 810 810 628.675781 810 405 C 810 181.324219 628.675781 0 405 0 Z M 405 0 " clip-rule="nonzero"/></clipPath></defs><rect x="-81" width="972" fill="#ffffff" y="-80.999999" height="971.999992" fill-opacity="1"/><rect x="-81" width="972" fill="#ffffff" y="-80.999999" height="971.999992" fill-opacity="1"/><g clip-path="url(#229e2d0be7)"><rect x="-81" width="972" fill="#373939" y="-80.999999" height="971.999992" fill-opacity="1"/></g><g fill="#ffffff" fill-opacity="1"><g transform="translate(80.999999, 548.842864)"><g><path d="M 593.765625 -85.84375 C 595.191406 -82.53125 595.785156 -78.390625 595.546875 -73.421875 C 595.304688 -68.453125 592.585938 -66.441406 587.390625 -67.390625 C 565.628906 -70.234375 543.988281 -68.460938 522.46875 -62.078125 C 500.957031 -55.691406 480.148438 -47.054688 460.046875 -36.171875 C 439.953125 -25.296875 421.394531 -14.1875 404.375 -2.84375 C 402.957031 -2.363281 401.65625 -1.648438 400.46875 -0.703125 C 399.28125 0.234375 397.976562 0.941406 396.5625 1.421875 C 399.40625 4.253906 401.769531 6.851562 403.65625 9.21875 C 413.59375 21.039062 417.492188 32.035156 415.359375 42.203125 C 413.234375 52.378906 407.914062 61.722656 399.40625 70.234375 C 390.894531 78.742188 381.910156 86.546875 372.453125 93.640625 C 336.972656 119.648438 297.242188 137.382812 253.265625 146.84375 C 246.171875 148.269531 239.078125 145.789062 231.984375 139.40625 C 224.890625 133.019531 221.34375 126.28125 221.34375 119.1875 C 221.34375 105.46875 224.414062 93.40625 230.5625 83 C 236.707031 72.59375 244.390625 63.015625 253.609375 54.265625 C 262.835938 45.515625 272.179688 37.125 281.640625 29.09375 C 286.835938 24.832031 292.273438 20.570312 297.953125 16.3125 C 303.628906 12.0625 309.070312 7.804688 314.28125 3.546875 C 298.664062 -0.234375 282.816406 -4.132812 266.734375 -8.15625 C 250.660156 -12.175781 234.820312 -16.078125 219.21875 -19.859375 C 200.769531 -24.585938 180.90625 -29.90625 159.625 -35.8125 C 138.34375 -41.726562 118.003906 -49.414062 98.609375 -58.875 C 79.210938 -68.34375 62.539062 -80.523438 48.59375 -95.421875 C 34.644531 -110.316406 25.773438 -128.878906 21.984375 -151.109375 C 18.203125 -174.753906 22.222656 -196.507812 34.046875 -216.375 C 45.867188 -236.238281 59.585938 -253.972656 75.203125 -269.578125 C 92.222656 -286.609375 110.546875 -302.453125 130.171875 -317.109375 C 149.804688 -331.773438 170.023438 -345.253906 190.828125 -357.546875 C 234.335938 -382.609375 279.976562 -402 327.75 -415.71875 C 341.46875 -419.5 356.601562 -423.519531 373.15625 -427.78125 C 389.707031 -432.039062 406.257812 -434.640625 422.8125 -435.578125 C 439.363281 -436.523438 454.734375 -434.632812 468.921875 -429.90625 C 487.367188 -423.289062 502.382812 -411.585938 513.96875 -394.796875 C 525.550781 -378.003906 532.523438 -360.148438 534.890625 -341.234375 C 536.773438 -324.679688 535.117188 -308.953125 529.921875 -294.046875 C 524.722656 -279.148438 517.75 -264.960938 509 -251.484375 C 500.257812 -238.003906 491.160156 -225.117188 481.703125 -212.828125 C 479.335938 -209.046875 475.789062 -207.976562 471.0625 -209.625 C 466.332031 -211.28125 461.835938 -214.238281 457.578125 -218.5 C 453.316406 -222.757812 450.125 -227.367188 448 -232.328125 C 445.875 -237.296875 446.226562 -241.671875 449.0625 -245.453125 C 455.6875 -254.441406 462.78125 -264.492188 470.34375 -275.609375 C 477.914062 -286.722656 484.421875 -298.425781 489.859375 -310.71875 C 495.296875 -323.019531 498.367188 -335.316406 499.078125 -347.609375 C 499.785156 -359.910156 496.59375 -371.738281 489.5 -383.09375 C 484.769531 -390.65625 477.910156 -395.265625 468.921875 -396.921875 C 459.941406 -398.578125 450.601562 -398.578125 440.90625 -396.921875 C 431.207031 -395.265625 422.578125 -393.960938 415.015625 -393.015625 C 391.367188 -388.765625 367.957031 -383.09375 344.78125 -376 C 301.269531 -363.226562 259.882812 -345.375 220.625 -322.4375 C 181.375 -299.5 145.429688 -272.421875 112.796875 -241.203125 C 103.335938 -232.210938 93.523438 -221.453125 83.359375 -208.921875 C 73.191406 -196.390625 65.625 -183.03125 60.65625 -168.84375 C 55.6875 -154.65625 56.273438 -140.226562 62.421875 -125.5625 C 66.679688 -115.15625 73.660156 -106.523438 83.359375 -99.671875 C 93.054688 -92.816406 103.578125 -87.257812 114.921875 -83 C 126.273438 -78.75 136.914062 -74.96875 146.84375 -71.65625 C 170.019531 -65.03125 193.550781 -59 217.4375 -53.5625 C 241.320312 -48.125 264.851562 -42.566406 288.03125 -36.890625 C 297.957031 -34.523438 308.238281 -32.273438 318.875 -30.140625 C 329.519531 -28.015625 340.046875 -25.535156 350.453125 -22.703125 C 353.765625 -25.066406 357.191406 -27.3125 360.734375 -29.4375 C 364.285156 -31.570312 367.71875 -33.820312 371.03125 -36.1875 C 389.945312 -48.007812 410.164062 -59.832031 431.6875 -71.65625 C 453.207031 -83.476562 475.550781 -92.695312 498.71875 -99.3125 C 521.882812 -105.9375 545.054688 -107.832031 568.234375 -105 C 580.054688 -103.570312 588.566406 -97.1875 593.765625 -85.84375 Z M 372.453125 31.921875 C 376.703125 27.671875 379.0625 24.832031 379.53125 23.40625 C 380.007812 21.988281 377.648438 20.332031 372.453125 18.4375 C 354.472656 31.207031 337.207031 44.21875 320.65625 57.46875 C 314.039062 62.664062 306.828125 68.335938 299.015625 74.484375 C 291.210938 80.640625 284.238281 87.265625 278.09375 94.359375 C 295.59375 87.265625 312.265625 78.515625 328.109375 68.109375 C 343.953125 57.703125 358.734375 45.640625 372.453125 31.921875 Z M 372.453125 31.921875 "/></g></g></g></svg>