<svg xmlns="http://www.w3.org/2000/svg" xmlns:xlink="http://www.w3.org/1999/xlink" width="1080" zoomAndPan="magnify" viewBox="0 0 810 809.999993" height="1080" preserveAspectRatio="xMidYMid meet" version="1.0"><defs><g/></defs><g fill="#ffffff" fill-opacity="1"><g transform="translate(17.694659, 455.694333)"><g><path d="M 248.78125 -35.96875 C 249.375 -34.582031 249.617188 -32.847656 249.515625 -30.765625 C 249.421875 -28.679688 248.285156 -27.835938 246.109375 -28.234375 C 236.992188 -29.421875 227.925781 -28.675781 218.90625 -26 C 209.894531 -23.332031 201.175781 -19.71875 192.75 -15.15625 C 184.332031 -10.601562 176.554688 -5.945312 169.421875 -1.1875 C 168.828125 -0.988281 168.28125 -0.691406 167.78125 -0.296875 C 167.289062 0.0976562 166.75 0.394531 166.15625 0.59375 C 167.34375 1.78125 168.332031 2.867188 169.125 3.859375 C 173.289062 8.816406 174.925781 13.425781 174.03125 17.6875 C 173.132812 21.945312 170.90625 25.859375 167.34375 29.421875 C 163.78125 32.992188 160.015625 36.265625 156.046875 39.234375 C 141.179688 50.128906 124.535156 57.5625 106.109375 61.53125 C 103.140625 62.125 100.164062 61.082031 97.1875 58.40625 C 94.21875 55.726562 92.734375 52.90625 92.734375 49.9375 C 92.734375 44.1875 94.019531 39.128906 96.59375 34.765625 C 99.175781 30.410156 102.398438 26.398438 106.265625 22.734375 C 110.128906 19.066406 114.039062 15.550781 118 12.1875 C 120.175781 10.40625 122.453125 8.617188 124.828125 6.828125 C 127.210938 5.046875 129.492188 3.265625 131.671875 1.484375 C 125.128906 -0.0976562 118.488281 -1.726562 111.75 -3.40625 C 105.019531 -5.09375 98.382812 -6.734375 91.84375 -8.328125 C 84.113281 -10.304688 75.789062 -12.53125 66.875 -15 C 57.957031 -17.476562 49.4375 -20.695312 41.3125 -24.65625 C 33.1875 -28.625 26.203125 -33.726562 20.359375 -39.96875 C 14.515625 -46.21875 10.800781 -54 9.21875 -63.3125 C 7.632812 -73.21875 9.316406 -82.332031 14.265625 -90.65625 C 19.222656 -98.976562 24.96875 -106.410156 31.5 -112.953125 C 38.632812 -120.085938 46.3125 -126.722656 54.53125 -132.859375 C 62.757812 -139.003906 71.234375 -144.65625 79.953125 -149.8125 C 98.179688 -160.3125 117.304688 -168.429688 137.328125 -174.171875 C 143.066406 -175.765625 149.40625 -177.453125 156.34375 -179.234375 C 163.28125 -181.015625 170.21875 -182.101562 177.15625 -182.5 C 184.09375 -182.894531 190.53125 -182.101562 196.46875 -180.125 C 204.195312 -177.351562 210.488281 -172.445312 215.34375 -165.40625 C 220.195312 -158.375 223.117188 -150.894531 224.109375 -142.96875 C 224.898438 -136.03125 224.207031 -129.441406 222.03125 -123.203125 C 219.851562 -116.960938 216.929688 -111.015625 213.265625 -105.359375 C 209.597656 -99.710938 205.785156 -94.316406 201.828125 -89.171875 C 200.828125 -87.585938 199.335938 -87.140625 197.359375 -87.828125 C 195.378906 -88.523438 193.5 -89.765625 191.71875 -91.546875 C 189.9375 -93.328125 188.597656 -95.257812 187.703125 -97.34375 C 186.804688 -99.425781 186.957031 -101.257812 188.15625 -102.84375 C 190.925781 -106.601562 193.894531 -110.8125 197.0625 -115.46875 C 200.238281 -120.125 202.960938 -125.03125 205.234375 -130.1875 C 207.515625 -135.34375 208.800781 -140.492188 209.09375 -145.640625 C 209.394531 -150.796875 208.0625 -155.75 205.09375 -160.5 C 203.113281 -163.675781 200.238281 -165.609375 196.46875 -166.296875 C 192.707031 -166.992188 188.796875 -166.992188 184.734375 -166.296875 C 180.671875 -165.609375 177.050781 -165.066406 173.875 -164.671875 C 163.96875 -162.890625 154.160156 -160.507812 144.453125 -157.53125 C 126.222656 -152.1875 108.882812 -144.707031 92.4375 -135.09375 C 75.988281 -125.476562 60.929688 -114.132812 47.265625 -101.0625 C 43.296875 -97.289062 39.179688 -92.78125 34.921875 -87.53125 C 30.660156 -82.28125 27.488281 -76.679688 25.40625 -70.734375 C 23.332031 -64.796875 23.582031 -58.753906 26.15625 -52.609375 C 27.9375 -48.253906 30.859375 -44.640625 34.921875 -41.765625 C 38.984375 -38.890625 43.390625 -36.554688 48.140625 -34.765625 C 52.898438 -32.984375 57.363281 -31.398438 61.53125 -30.015625 C 71.238281 -27.242188 81.09375 -24.71875 91.09375 -22.4375 C 101.101562 -20.15625 110.960938 -17.828125 120.671875 -15.453125 C 124.835938 -14.460938 129.148438 -13.519531 133.609375 -12.625 C 138.066406 -11.738281 142.472656 -10.703125 146.828125 -9.515625 C 148.222656 -10.503906 149.660156 -11.441406 151.140625 -12.328125 C 152.628906 -13.222656 154.066406 -14.164062 155.453125 -15.15625 C 163.378906 -20.113281 171.847656 -25.066406 180.859375 -30.015625 C 189.878906 -34.972656 199.242188 -38.835938 208.953125 -41.609375 C 218.660156 -44.390625 228.367188 -45.179688 238.078125 -43.984375 C 243.035156 -43.390625 246.601562 -40.71875 248.78125 -35.96875 Z M 156.046875 13.375 C 157.828125 11.59375 158.816406 10.40625 159.015625 9.8125 C 159.210938 9.21875 158.222656 8.523438 156.046875 7.734375 C 148.515625 13.078125 141.28125 18.523438 134.34375 24.078125 C 131.570312 26.253906 128.550781 28.628906 125.28125 31.203125 C 122.007812 33.785156 119.085938 36.5625 116.515625 39.53125 C 123.847656 36.5625 130.832031 32.894531 137.46875 28.53125 C 144.101562 24.175781 150.296875 19.125 156.046875 13.375 Z M 156.046875 13.375 "/></g></g></g><g fill="#ffffff" fill-opacity="1"><g transform="translate(257.567649, 455.694333)"><g><path d="M 138.515625 -38.640625 C 140.492188 -39.628906 142.472656 -39.429688 144.453125 -38.046875 C 146.429688 -36.660156 147.71875 -34.875 148.3125 -32.6875 C 148.914062 -30.507812 147.925781 -28.726562 145.34375 -27.34375 C 136.425781 -22.195312 127.3125 -16.75 118 -11 C 108.6875 -5.25 99.078125 -0.691406 89.171875 2.671875 C 83.617188 4.453125 78.164062 4.101562 72.8125 1.625 C 67.46875 -0.84375 64.5 -5.347656 63.90625 -11.890625 C 63.707031 -14.859375 64.003906 -17.878906 64.796875 -20.953125 C 65.585938 -24.023438 66.476562 -26.945312 67.46875 -29.71875 C 68.257812 -31.707031 69.050781 -33.691406 69.84375 -35.671875 C 70.632812 -37.648438 71.332031 -39.628906 71.9375 -41.609375 C 47.757812 -28.140625 26.359375 -11.097656 7.734375 9.515625 C 6.734375 10.703125 5.289062 10.945312 3.40625 10.25 C 1.53125 9.5625 0.0976562 8.820312 -0.890625 8.03125 C -7.429688 3.070312 -10.703125 -2.523438 -10.703125 -8.765625 C -10.703125 -15.003906 -9.515625 -21.691406 -7.140625 -28.828125 C -0.992188 -45.867188 5.742188 -62.710938 13.078125 -79.359375 C 20.609375 -96.203125 28.878906 -112.695312 37.890625 -128.84375 C 46.910156 -145 56.472656 -160.707031 66.578125 -175.96875 C 67.566406 -177.550781 69.050781 -178.046875 71.03125 -177.453125 C 73.019531 -176.859375 74.90625 -175.664062 76.6875 -173.875 C 78.46875 -172.09375 79.800781 -170.113281 80.6875 -167.9375 C 81.582031 -165.757812 81.535156 -163.878906 80.546875 -162.296875 C 63.109375 -136.140625 47.753906 -109.085938 34.484375 -81.140625 C 27.941406 -67.273438 21.796875 -53.109375 16.046875 -38.640625 C 13.671875 -32.492188 11.296875 -26.050781 8.921875 -19.3125 C 16.453125 -26.25 24.273438 -32.691406 32.390625 -38.640625 C 40.515625 -44.585938 48.9375 -50.132812 57.65625 -55.28125 C 62.019531 -57.863281 66.234375 -59.648438 70.296875 -60.640625 C 74.359375 -61.628906 78.46875 -60.238281 82.625 -56.46875 C 86 -53.300781 87.929688 -49.6875 88.421875 -45.625 C 88.921875 -41.5625 88.675781 -37.453125 87.6875 -33.296875 C 87.09375 -29.921875 86.148438 -26.644531 84.859375 -23.46875 C 83.566406 -20.300781 82.425781 -17.132812 81.4375 -13.96875 C 90.945312 -16.9375 100.707031 -20.550781 110.71875 -24.8125 C 120.726562 -29.070312 129.992188 -33.679688 138.515625 -38.640625 Z M 138.515625 -38.640625 "/></g></g></g><g fill="#ffffff" fill-opacity="1"><g transform="translate(397.567865, 455.694333)"><g><path d="M 111.46875 -38.046875 C 113.445312 -39.628906 115.570312 -39.875 117.84375 -38.78125 C 120.125 -37.695312 121.859375 -36.0625 123.046875 -33.875 C 124.242188 -31.695312 123.945312 -29.816406 122.15625 -28.234375 C 115.226562 -22.085938 108.242188 -16.039062 101.203125 -10.09375 C 94.171875 -4.15625 86.691406 1.085938 78.765625 5.640625 C 75.203125 7.828125 71.289062 9.859375 67.03125 11.734375 C 62.769531 13.617188 58.457031 14.265625 54.09375 13.671875 C 49.539062 13.273438 45.578125 11.488281 42.203125 8.3125 C 38.835938 5.144531 36.460938 1.382812 35.078125 -2.96875 C 34.285156 -5.75 33.988281 -8.425781 34.1875 -11 C 34.382812 -13.570312 34.878906 -16.046875 35.671875 -18.421875 C 27.742188 -13.273438 20.210938 -7.378906 13.078125 -0.734375 C 5.941406 5.898438 -2.179688 11 -11.296875 14.5625 C -13.273438 15.351562 -15.40625 15.003906 -17.6875 13.515625 C -19.96875 12.035156 -21.800781 10.101562 -23.1875 7.71875 C -24.570312 5.34375 -25.066406 3.164062 -24.671875 1.1875 C -22.691406 -7.726562 -19.273438 -16.394531 -14.421875 -24.8125 C -9.566406 -33.238281 -3.472656 -40.226562 3.859375 -45.78125 C 9.804688 -50.132812 16.097656 -51.863281 22.734375 -50.96875 C 29.378906 -50.082031 34.878906 -46.863281 39.234375 -41.3125 C 40.816406 -41.90625 42.398438 -42.5 43.984375 -43.09375 C 45.972656 -43.488281 48.253906 -42.796875 50.828125 -41.015625 C 52.410156 -39.828125 53.894531 -38.390625 55.28125 -36.703125 C 56.664062 -35.023438 57.457031 -33.390625 57.65625 -31.796875 C 57.851562 -30.804688 57.753906 -29.914062 57.359375 -29.125 C 57.160156 -26.75 56.664062 -24.46875 55.875 -22.28125 C 55.082031 -20.101562 54.289062 -17.828125 53.5 -15.453125 C 52.707031 -13.273438 52.113281 -11.09375 51.71875 -8.90625 C 51.320312 -6.726562 50.828125 -4.453125 50.234375 -2.078125 C 50.429688 -2.078125 50.578125 -2.078125 50.671875 -2.078125 C 50.773438 -2.078125 50.925781 -2.078125 51.125 -2.078125 C 55.476562 -2.671875 60.53125 -4.351562 66.28125 -7.125 C 72.03125 -9.90625 77.828125 -13.226562 83.671875 -17.09375 C 89.515625 -20.957031 94.910156 -24.769531 99.859375 -28.53125 C 104.816406 -32.300781 108.6875 -35.472656 111.46875 -38.046875 Z M 4.15625 -18.125 C 8.125 -21.300781 11.988281 -24.421875 15.75 -27.484375 C 19.519531 -30.554688 23.484375 -33.382812 27.640625 -35.96875 C 27.441406 -35.96875 27.34375 -35.96875 27.34375 -35.96875 C 26.945312 -35.96875 26.453125 -35.914062 25.859375 -35.8125 C 25.265625 -35.71875 24.671875 -35.570312 24.078125 -35.375 C 22.492188 -34.976562 20.957031 -34.28125 19.46875 -33.28125 C 17.976562 -32.289062 16.640625 -31.300781 15.453125 -30.3125 C 13.273438 -28.53125 11.296875 -26.648438 9.515625 -24.671875 C 7.734375 -22.691406 6.144531 -20.707031 4.75 -18.71875 C 4.550781 -18.519531 4.453125 -18.367188 4.453125 -18.265625 C 4.453125 -18.171875 4.351562 -18.125 4.15625 -18.125 Z M 4.15625 -18.125 "/></g></g></g><g fill="#ffffff" fill-opacity="1"><g transform="translate(510.816468, 455.694333)"><g><path d="M 80.546875 -64.796875 C 81.140625 -66.773438 82.328125 -67.664062 84.109375 -67.46875 C 85.898438 -67.269531 87.785156 -66.378906 89.765625 -64.796875 C 91.742188 -63.210938 93.375 -61.378906 94.65625 -59.296875 C 95.945312 -57.210938 96.394531 -55.378906 96 -53.796875 C 92.039062 -39.929688 86.59375 -27.148438 79.65625 -15.453125 C 78.070312 -12.484375 76.085938 -9.066406 73.703125 -5.203125 C 71.328125 -1.335938 68.601562 2.128906 65.53125 5.203125 C 62.46875 8.273438 59.050781 10.007812 55.28125 10.40625 C 49.738281 11.195312 45.082031 9.363281 41.3125 4.90625 C 37.550781 0.445312 35.570312 -4.257812 35.375 -9.21875 C 35.175781 -12.78125 35.273438 -16.445312 35.671875 -20.21875 C 33.085938 -17.832031 30.554688 -15.351562 28.078125 -12.78125 C 25.609375 -10.207031 23.085938 -7.628906 20.515625 -5.046875 C 18.328125 -2.671875 15.695312 0.0976562 12.625 3.265625 C 9.5625 6.441406 6.242188 9.117188 2.671875 11.296875 C -0.890625 13.472656 -4.554688 14.265625 -8.328125 13.671875 C -13.867188 12.878906 -17.628906 9.90625 -19.609375 4.75 C -21.597656 -0.394531 -22 -5.347656 -20.8125 -10.109375 C -19.019531 -16.453125 -16.289062 -22.59375 -12.625 -28.53125 C -8.96875 -34.476562 -4.957031 -40.023438 -0.59375 -45.171875 C 0.59375 -46.566406 2.175781 -46.914062 4.15625 -46.21875 C 6.144531 -45.519531 8.078125 -44.28125 9.953125 -42.5 C 11.835938 -40.71875 13.125 -38.785156 13.8125 -36.703125 C 14.507812 -34.628906 14.265625 -32.796875 13.078125 -31.203125 C 10.703125 -28.429688 8.421875 -25.507812 6.234375 -22.4375 C 4.054688 -19.363281 2.078125 -16.144531 0.296875 -12.78125 C 0.296875 -12.582031 0 -11.890625 -0.59375 -10.703125 C 1.582031 -12.679688 3.710938 -14.859375 5.796875 -17.234375 C 7.878906 -19.617188 9.910156 -21.800781 11.890625 -23.78125 C 16.835938 -28.925781 21.890625 -34.125 27.046875 -39.375 C 32.203125 -44.632812 37.253906 -49.835938 42.203125 -54.984375 C 44.179688 -56.960938 46.359375 -57.207031 48.734375 -55.71875 C 51.117188 -54.238281 53.148438 -52.109375 54.828125 -49.328125 C 56.515625 -46.554688 57.160156 -44.28125 56.765625 -42.5 C 55.972656 -38.539062 55.226562 -34.628906 54.53125 -30.765625 C 53.84375 -26.898438 53.203125 -22.984375 52.609375 -19.015625 C 52.609375 -18.023438 52.359375 -16.441406 51.859375 -14.265625 C 51.367188 -12.085938 51.023438 -9.8125 50.828125 -7.4375 C 53.003906 -9.414062 55.28125 -12.1875 57.65625 -15.75 C 60.039062 -19.320312 62.125 -22.691406 63.90625 -25.859375 C 65.6875 -29.023438 66.875 -31.003906 67.46875 -31.796875 C 70.25 -37.148438 72.726562 -42.550781 74.90625 -48 C 77.082031 -53.445312 78.960938 -59.046875 80.546875 -64.796875 Z M 80.546875 -64.796875 "/></g></g></g><g fill="#ffffff" fill-opacity="1"><g transform="translate(622.876108, 455.694333)"><g><path d="M 147.71875 -114.140625 C 149.507812 -113.148438 151.34375 -111.613281 153.21875 -109.53125 C 155.101562 -107.445312 155.945312 -105.316406 155.75 -103.140625 C 155.550781 -100.960938 154.660156 -99.722656 153.078125 -99.421875 C 151.492188 -99.128906 149.804688 -99.476562 148.015625 -100.46875 C 140.296875 -104.425781 132.175781 -107.097656 123.65625 -108.484375 C 115.132812 -109.878906 106.613281 -110.875 98.09375 -111.46875 C 81.25 -112.457031 64.304688 -112.851562 47.265625 -112.65625 C 47.066406 -112.65625 46.867188 -112.65625 46.671875 -112.65625 C 46.472656 -112.65625 46.375 -112.65625 46.375 -112.65625 C 37.65625 -93.425781 29.675781 -73.90625 22.4375 -54.09375 C 15.207031 -34.28125 9.460938 -14.171875 5.203125 6.234375 C 0.941406 26.648438 -0.988281 47.457031 -0.59375 68.65625 C -0.59375 71.039062 -1.382812 72.332031 -2.96875 72.53125 C -4.550781 72.726562 -6.382812 72.179688 -8.46875 70.890625 C -10.550781 69.597656 -12.382812 68.007812 -13.96875 66.125 C -15.550781 64.25 -16.34375 62.421875 -16.34375 60.640625 C -16.9375 30.515625 -13.070312 1.085938 -4.75 -27.640625 C 3.570312 -56.367188 13.675781 -84.410156 25.5625 -111.765625 C -2.96875 -110.171875 -31.207031 -106.703125 -59.15625 -101.359375 C -60.9375 -100.960938 -62.863281 -101.457031 -64.9375 -102.84375 C -67.019531 -104.226562 -68.804688 -105.910156 -70.296875 -107.890625 C -71.785156 -109.878906 -72.628906 -111.765625 -72.828125 -113.546875 C -73.023438 -115.328125 -72.226562 -116.414062 -70.4375 -116.8125 C -53.394531 -119.976562 -36.253906 -122.550781 -19.015625 -124.53125 C -1.773438 -126.519531 15.5625 -127.710938 33 -128.109375 C 36.164062 -135.046875 39.332031 -141.929688 42.5 -148.765625 C 45.675781 -155.597656 48.945312 -162.382812 52.3125 -169.125 C 53.101562 -170.90625 54.488281 -171.644531 56.46875 -171.34375 C 58.457031 -171.050781 60.441406 -170.113281 62.421875 -168.53125 C 64.398438 -166.945312 65.929688 -165.160156 67.015625 -163.171875 C 68.109375 -161.191406 68.257812 -159.410156 67.46875 -157.828125 C 65.09375 -152.878906 62.765625 -147.976562 60.484375 -143.125 C 58.203125 -138.269531 55.875 -133.460938 53.5 -128.703125 C 64 -128.703125 74.75 -128.503906 85.75 -128.109375 C 96.75 -127.710938 107.546875 -126.472656 118.140625 -124.390625 C 128.742188 -122.304688 138.601562 -118.890625 147.71875 -114.140625 Z M 147.71875 -114.140625 "/></g></g></g><g fill="#ffffff" fill-opacity="1"><g transform="translate(663.895305, 455.694333)"><g><path d="M 126.328125 -38.34375 C 128.304688 -39.53125 130.382812 -39.378906 132.5625 -37.890625 C 134.75 -36.410156 136.238281 -34.53125 137.03125 -32.25 C 137.820312 -29.96875 137.023438 -28.132812 134.640625 -26.75 C 120.972656 -18.625 107.945312 -9.363281 95.5625 1.03125 C 83.175781 11.4375 71.335938 22.191406 60.046875 33.296875 C 44.390625 65.785156 25.660156 96.300781 3.859375 124.84375 C 2.472656 126.625 0.691406 126.921875 -1.484375 125.734375 C -3.660156 124.546875 -5.640625 122.859375 -7.421875 120.671875 C -9.210938 118.492188 -10.304688 116.8125 -10.703125 115.625 C -13.273438 106.3125 -12.675781 97.394531 -8.90625 88.875 C -5.144531 80.351562 -0.492188 72.425781 5.046875 65.09375 C 9.804688 58.550781 14.957031 52.257812 20.5 46.21875 C 26.050781 40.175781 31.601562 34.28125 37.15625 28.53125 C 39.726562 25.957031 42.503906 23.1875 45.484375 20.21875 C 52.410156 6.144531 58.550781 -8.320312 63.90625 -23.1875 C 57.363281 -17.832031 50.722656 -12.878906 43.984375 -8.328125 C 39.035156 -5.148438 33.9375 -2.078125 28.6875 0.890625 C 23.4375 3.859375 18.035156 5.835938 12.484375 6.828125 C 6.929688 7.828125 1.085938 7.035156 -5.046875 4.453125 C -6.640625 3.660156 -8.425781 2.175781 -10.40625 0 C -12.382812 -2.175781 -13.273438 -4.359375 -13.078125 -6.546875 C -11.691406 -22.390625 -6.046875 -36.457031 3.859375 -48.75 C 5.046875 -50.132812 6.628906 -50.476562 8.609375 -49.78125 C 10.597656 -49.09375 12.484375 -47.851562 14.265625 -46.0625 C 16.046875 -44.28125 17.332031 -42.347656 18.125 -40.265625 C 18.914062 -38.191406 18.71875 -36.363281 17.53125 -34.78125 C 11.195312 -26.851562 6.835938 -18.132812 4.453125 -8.625 C 7.234375 -9.21875 9.957031 -10.207031 12.625 -11.59375 C 15.300781 -12.976562 17.632812 -14.265625 19.625 -15.453125 C 23.382812 -17.628906 26.945312 -19.859375 30.3125 -22.140625 C 33.6875 -24.421875 37.054688 -26.847656 40.421875 -29.421875 C 46.960938 -34.179688 53.253906 -39.1875 59.296875 -44.4375 C 65.335938 -49.6875 71.234375 -55.1875 76.984375 -60.9375 C 78.765625 -62.71875 80.894531 -62.863281 83.375 -61.375 C 85.851562 -59.894531 87.984375 -57.816406 89.765625 -55.140625 C 91.546875 -52.460938 92.140625 -50.234375 91.546875 -48.453125 C 87.785156 -35.765625 83.523438 -22.984375 78.765625 -10.109375 C 85.703125 -15.847656 93.429688 -20.945312 101.953125 -25.40625 C 110.472656 -29.863281 118.597656 -34.175781 126.328125 -38.34375 Z M 126.328125 -38.34375 "/></g></g></g></svg>